Coordinates
version=1
nRows=29
nColumns=24
inDegrees=yes

Units are S.I. units (second, meters, Newtons, ...)
Angles are in degrees.

endheader
time	pelvis_tilt	pelvis_list	pelvis_rotation	pelvis_tx	pelvis_ty	pelvis_tz	hip_flexion_r	hip_adduction_r	hip_rotation_r	knee_angle_r	ankle_angle_r	subtalar_angle_r	mtp_angle_r	hip_flexion_l	hip_adduction_l	hip_rotation_l	knee_angle_l	ankle_angle_l	subtalar_angle_l	mtp_angle_l	lumbar_extension	lumbar_bending	lumbar_rotation
      0.82916667	      0.88716191	     -5.12488394	      7.63059860	     -0.55129497	      1.02838458	      0.32755060	     11.08751686	     10.68144346	     -2.84842889	    -15.46931818	      4.31500235	    -11.22784496	      6.00342317	     15.61602653	     -8.29238380	     -0.67330801	    -68.68054293	     -7.60791924	     -3.52619969	      3.15224264	     -0.63807828	      2.19047608	     -2.13083572
      0.83333333	      0.87498229	     -5.06648688	      7.61245128	     -0.54655800	      1.02896012	      0.32775344	     10.67970846	     10.67212514	     -2.81887797	    -15.24057726	      4.46811641	    -11.11717295	      6.00289614	     16.21076936	     -8.20057002	     -0.65419113	    -68.60147020	     -6.61187852	     -3.72058210	      3.05244014	     -0.70751230	      2.11843317	     -2.00210930
      0.83750000	      0.84001693	     -4.99807345	      7.57871857	     -0.54184030	      1.02951006	      0.32795331	     10.30019477	     10.64927438	     -2.77335675	    -15.02316749	      4.60792179	    -11.01399638	      6.00116910	     16.81178713	     -8.08831042	     -0.64928154	    -68.45774959	     -5.68088411	     -3.95604431	      2.95573574	     -0.77541798	      2.04169295	     -1.87692256
      0.84166667	      0.82609302	     -4.91652706	      7.54279462	     -0.53706783	      1.03010598	      0.32814949	      9.87727503	     10.61602547	     -2.72795617	    -14.77046188	      4.72814493	    -10.93861795	      6.00133487	     17.36087026	     -7.96223569	     -0.65539869	    -68.23080169	     -4.85533123	     -4.27401875	      2.91789277	     -0.80825647	      1.94390911	     -1.79928407
      0.84583333	      0.82005137	     -4.84425271	      7.47786037	     -0.53235228	      1.03067010	      0.32839395	      9.46022780	     10.59780551	     -2.64372782	    -14.54799366	      4.89654828	    -10.78581327	      5.99706615	     17.89165187	     -7.85781531	     -0.68309844	    -67.96820419	     -3.96174288	     -4.37952142	      2.77861277	     -0.92259722	      1.86463414	     -1.56740755
      0.85000000	      0.80395461	     -4.75723451	      7.41911985	     -0.52757741	      1.03124519	      0.32859308	      9.03409902	     10.55896321	     -2.57697548	    -14.28840601	      5.00351510	    -10.70505891	      5.99572021	     18.40460809	     -7.72157495	     -0.70757799	    -67.61759863	     -3.24676616	     -4.69520289	      2.73061829	     -0.95401944	      1.76249762	     -1.48365750
      0.85416667	      0.83006524	     -4.66311725	      7.32373536	     -0.52284497	      1.03186268	      0.32885690	      8.56574902	     10.52427286	     -2.45625378	    -14.04367117	      5.17479634	    -10.55001573	      5.98443271	     18.84807225	     -7.59793309	     -0.77018533	    -67.21298700	     -2.49511860	     -4.83859644	      2.53023889	     -1.08592497	      1.65171214	     -1.17668031
      0.85833333	      0.82846462	     -4.57357153	      7.21731100	     -0.51810899	      1.03241490	      0.32911776	      8.12876538	     10.48983757	     -2.32787165	    -13.80044012	      5.31027299	    -10.43933994	      5.96318677	     19.30524325	     -7.47137353	     -0.83673738	    -66.75167603	     -1.82581712	     -5.06906605	      2.25615168	     -1.17255796	      1.55449547	     -0.92166503
      0.86250000	      0.79737243	     -4.49178317	      7.11692354	     -0.51336693	      1.03290481	      0.32933778	      7.72624104	     10.45308268	     -2.23457389	    -13.55396734	      5.38853595	    -10.36110109	      5.95919752	     19.78332778	     -7.33848461	     -0.88849784	    -66.23641845	     -1.22369554	     -5.35970799	      2.20219668	     -1.20873023	      1.47129178	     -0.86372412
      0.86666667	      0.80004661	     -4.37722288	      6.96358606	     -0.50863016	      1.03346668	      0.32964278	      7.27672307	     10.39358912	     -2.05030599	    -13.30654909	      5.48244109	    -10.23346362	      5.66342272	     20.18016871	     -7.19215314	     -0.99826288	    -65.64713378	     -0.59491220	     -5.52375332	     -0.52636408	     -1.30401295	      1.34338563	     -0.51606698
      0.87083333	      0.82709599	     -4.28270334	      6.83717451	     -0.50391729	      1.03399639	      0.32989978	      6.80377693	     10.35375523	     -1.90140280	    -13.05355036	      5.64177921	    -10.14987556	      5.66492367	     20.55113435	     -7.06039578	     -1.07479591	    -65.01363363	     -0.05172494	     -5.74852427	     -0.53481759	     -1.43669902	      1.25789619	     -0.35713274
      0.87500000	      0.85614464	     -4.18816508	      6.68465279	     -0.49919482	      1.03451817	      0.33018496	      6.32732451	     10.31322942	     -1.73067436	    -12.79932235	      5.75044514	    -10.05235772	      5.66265483	     20.89262092	     -6.93588815	     -1.17352723	    -64.31725851	      0.44616320	     -5.95824633	     -0.54971557	     -1.56032083	      1.16522880	     -0.12847379
      0.87916667	      0.87268626	     -4.08845851	      6.51341808	     -0.49449806	      1.03500493	      0.33048019	      5.87330538	     10.26299811	     -1.54723280	    -12.56439194	      5.85008239	     -9.96009614	      5.65963017	     21.22595100	     -6.80447486	     -1.28421903	    -63.56393674	      0.91879406	     -6.17143316	     -0.56256746	     -1.68218921	      1.07739284	      0.07318060
      0.88333333	      0.88131208	     -3.98583858	      6.33154327	     -0.48977772	      1.03546560	      0.33078585	      5.42272836	     10.20651390	     -1.35493893	    -12.32197797	      5.95192214	     -9.86149937	      5.65570522	     21.54321690	     -6.67150948	     -1.40355762	    -62.74973357	      1.34962784	     -6.37406433	     -0.57640803	     -1.78233087	      0.97230938	      0.29333568
      0.88750000	      0.94943698	     -3.88947862	      6.15190296	     -0.48504788	      1.03599835	      0.33109739	      4.89231681	     10.16225185	     -1.15712536	    -12.04329872	      6.05739603	     -9.75520662	      5.64575274	     21.77500984	     -6.55666934	     -1.52349502	    -61.87464506	      1.72614973	     -6.55326409	     -0.60332991	     -1.93253466	      0.87612171	      0.61713574
      0.89166667	      0.95943986	     -3.78847522	      5.94441345	     -0.48035551	      1.03640221	      0.33142244	      4.45101371	     10.10195984	     -0.94201781	    -11.82291928	      6.15711154	     -9.65884008	      5.63811413	     22.04942887	     -6.42943920	     -1.65574527	    -60.95160428	      2.11332430	     -6.73130138	     -0.62166418	     -2.04678551	      0.78137093	      0.82755956
      0.89583333	      0.99522549	     -3.71070415	      5.74927017	     -0.47563895	      1.03680834	      0.33173653	      3.96564763	     10.06675342	     -0.73528179	    -11.55851640	      6.25982524	     -9.55609846	      5.62278344	     22.28413954	     -6.33026312	     -1.77378324	    -59.98059485	      2.44593371	     -6.89296618	     -0.65272617	     -2.15683240	      0.70550919	      1.14239280
      0.90000000	      1.02090189	     -3.62814034	      5.53822597	     -0.47092887	      1.03717790	      0.33205571	      3.50123408	     10.02090074	     -0.51967523	    -11.31902529	      6.35825930	     -9.45144572	      5.60516238	     22.50400361	     -6.22483073	     -1.89916942	    -58.95134240	      2.76383918	     -7.04552481	     -0.68507371	     -2.26783482	      0.63029550	      1.41026924
      0.90416667	      1.04228826	     -3.53765983	      5.31712220	     -0.46622473	      1.03751609	      0.33237913	      3.04543139	      9.96155606	     -0.30030814	    -11.08927728	      6.46879132	     -9.34514281	      5.58858551	     22.70297485	     -6.11199621	     -2.03286823	    -57.86121407	      3.04856332	     -7.19998915	     -0.71542725	     -2.37125655	      0.54554728	      1.65877043
      0.90833333	      1.04063622	     -3.45953535	      5.08630670	     -0.46153166	      1.03778064	      0.33270187	      2.62404120	      9.90952837	     -0.07195743	    -10.87515930	      6.56759594	     -9.23128508	      5.57403996	     22.91046073	     -6.00963124	     -2.16382875	    -56.72577015	      3.32292444	     -7.34228103	     -0.74091743	     -2.46882175	      0.47263130	      1.88161056
      0.91250000	      1.06591570	     -3.38318251	      4.86142880	     -0.45681593	      1.03806440	      0.33300819	      2.16532239	      9.85734474	      0.14908129	    -10.64362722	      6.67396684	     -9.11613777	      5.55710163	     23.06409293	     -5.90890170	     -2.28701465	    -55.52841957	      3.54749919	     -7.48745337	     -0.77126304	     -2.57642451	      0.40425422	      2.14322119
      0.91666667	      1.11502563	     -3.32230299	      4.64940558	     -0.45208780	      1.03834871	      0.33329255	      1.67389558	      9.81970379	      0.35431188	    -10.39011455	      6.77837506	     -8.99305272	      5.52754143	     23.17553100	     -5.82114924	     -2.38909016	    -54.28090034	      3.72518724	     -7.63797405	     -0.82058887	     -2.69357522	      0.35859237	      2.47299406
      0.92083333	      1.13143898	     -3.25746844	      4.41986962	     -0.44736306	      1.03854129	      0.33358275	      1.23051925	      9.77080055	      0.57522716	    -10.16686723	      6.89248285	     -8.88277264	      5.49961007	     23.29749256	     -5.73096138	     -2.50927138	    -52.98092206	      3.88240140	     -7.78024903	     -0.86985287	     -2.78462362	      0.30375823	      2.72698617
      0.92500000	      1.10982862	     -3.19357354	      4.17934332	     -0.44263369	      1.03866060	      0.33387643	      0.83800730	      9.71588553	      0.80862079	     -9.96458905	      6.99356416	     -8.76784836	      5.48151300	     23.43477073	     -5.63852726	     -2.62952331	    -51.62401211	      4.01873335	     -7.91514654	     -0.90645922	     -2.84328812	      0.24194043	      2.91148068
      0.92916667	      1.12882948	     -3.15090715	      3.97006507	     -0.43787885	      1.03878353	      0.33411201	      0.38527095	      9.68236114	      1.00530581	     -9.71864932	      7.10533254	     -8.65175911	      5.44347863	     23.51617425	     -5.55874408	     -2.71431826	    -50.22093149	      4.07250632	     -8.10555227	     -0.97931998	     -2.92126112	      0.22184737	      3.24428017
      0.93333333	      1.10055222	     -3.11280877	      3.74571124	     -0.43310866	      1.03880054	      0.33435036	     -0.00301001	      9.64719155	      1.21517698	     -9.50419714	      7.22117295	     -8.55368277	      5.40905273	     23.62441325	     -5.48664994	     -2.81848755	    -48.76876892	      4.10848463	     -8.26950392	     -1.05037532	     -2.94595746	      0.19822133	      3.47580597
      0.93750000	      1.08870193	     -3.06504605	      3.52313966	     -0.42831847	      1.03882085	      0.33458460	     -0.41386912	      9.59952949	      1.42419443	     -9.28252024	      7.33546413	     -8.44438846	      5.37371743	     23.68457767	     -5.40297972	     -2.91864662	    -47.25242740	      4.09398708	     -8.46161684	     -1.13007389	     -2.99308161	      0.15993434	      3.71359774
      0.94166667	      1.05004683	     -3.04261725	      3.30662531	     -0.42352686	      1.03874107	      0.33479422	     -0.79075771	      9.57482606	      1.63336337	     -9.06408221	      7.44232520	     -8.34398655	      5.33292427	     23.76301600	     -5.34122631	     -3.00752410	    -45.70122940	      4.04140623	     -8.66093456	     -1.22723548	     -3.00680223	      0.15410855	      3.95637751
      0.94583333	      1.01946779	     -3.01226526	      3.08842084	     -0.41869776	      1.03866645	      0.33498749	     -1.17671634	      9.53808425	      1.83712603	     -8.85023135	      7.55435622	     -8.25291383	      5.29570312	     23.79793188	     -5.27249260	     -3.10961580	    -44.08222958	      3.93923572	     -8.87561981	     -1.32581100	     -3.01911682	      0.13733388	      4.16940813
